<svg width="5147" height="2672" viewBox="0 0 5147 2672" fill="none" xmlns="http://www.w3.org/2000/svg">
<path d="M1213 1871V2451.17C1213 2477.15 1225.41 2535.06 1275.04 2558.86C1324.67 2582.66 1643.69 2568.78 1797 2558.86" stroke="#E58C22" stroke-width="50"/>
<path d="M1385.54 913.583L1371.85 333.571C1371.24 307.598 1382.28 249.412 1431.33 224.45C1480.39 199.489 1799.65 205.84 1953.15 212.136" stroke="#E68C22" stroke-width="50"/>
<path d="M1675.86 1405.19L2255.99 1398.38C2281.97 1398.07 2339.73 1384.99 2362.94 1335.08C2386.16 1285.17 2368.53 966.333 2356.81 813.154" stroke="#2ABDEC" stroke-width="50"/>
<path d="M801.899 1378L221.809 1387.83C195.833 1388.27 138.142 1401.66 115.189 1451.68C92.2357 1501.71 111.52 1820.45 124.031 1973.57" stroke="#E58C22" stroke-width="50"/>
<path d="M1095.83 913.99L1092.65 333.825C1092.51 307.845 1079.79 250.004 1030.02 226.479C980.261 202.953 661.321 218.58 508.072 229.334" stroke="#2ABDEC" stroke-width="50"/>
<rect x="663.528" y="815.8" width="1073.12" height="1172.91" rx="200" transform="rotate(-1.25085 663.528 815.8)" fill="#0B5FDD"/>
<ellipse cx="270.5" cy="49" rx="0.5" ry="49" fill="#D9D9D9"/>
<ellipse cx="456" cy="198.5" rx="101" ry="100.5" fill="#2ABDEC"/>
<ellipse cx="2377" cy="712.5" rx="101" ry="100.5" fill="#2ABDEC"/>
<ellipse cx="2023" cy="212.5" rx="101" ry="100.5" fill="#E58C22"/>
<ellipse cx="1863" cy="2571.5" rx="101" ry="100.5" fill="#E58C22"/>
<ellipse cx="101" cy="2074.5" rx="101" ry="100.5" fill="#E58C22"/>
<path d="M2546.6 1492V1002H2614.5L2914.1 1403.1L2902.9 1409.4C2901.03 1397.73 2899.4 1385.13 2898 1371.6C2896.6 1357.6 2895.2 1342.9 2893.8 1327.5C2892.87 1311.63 2891.93 1295.07 2891 1277.8C2890.53 1260.07 2890.07 1241.63 2889.6 1222.5C2889.13 1203.37 2888.9 1183.53 2888.9 1163V1002H2964.5V1492H2895.2L2600.5 1105.6L2608.2 1095.8C2610.53 1124.27 2612.4 1148.53 2613.8 1168.6C2615.67 1188.2 2617.07 1205 2618 1219C2619.4 1232.53 2620.33 1243.73 2620.8 1252.6C2621.27 1261 2621.5 1268 2621.5 1273.6C2621.97 1279.2 2622.2 1284.1 2622.2 1288.3V1492H2546.6ZM3108.68 1499C3072.74 1499 3040.54 1490.83 3012.08 1474.5C2984.08 1457.7 2961.91 1435.07 2945.58 1406.6C2929.24 1377.67 2921.08 1344.77 2921.08 1307.9C2921.08 1271.03 2929.24 1238.37 2945.58 1209.9C2961.91 1180.97 2984.08 1158.33 3012.08 1142C3040.54 1125.2 3072.74 1116.8 3108.68 1116.8C3144.14 1116.8 3175.88 1125.2 3203.88 1142C3232.34 1158.33 3254.74 1180.97 3271.08 1209.9C3287.41 1238.37 3295.58 1271.03 3295.58 1307.9C3295.58 1344.77 3287.41 1377.67 3271.08 1406.6C3254.74 1435.07 3232.34 1457.7 3203.88 1474.5C3175.88 1490.83 3144.14 1499 3108.68 1499ZM3108.68 1433.2C3130.61 1433.2 3150.21 1427.83 3167.48 1417.1C3184.74 1405.9 3198.28 1390.97 3208.08 1372.3C3217.88 1353.17 3222.54 1331.7 3222.08 1307.9C3222.54 1283.63 3217.88 1262.17 3208.08 1243.5C3198.28 1224.37 3184.74 1209.43 3167.48 1198.7C3150.21 1187.97 3130.61 1182.6 3108.68 1182.6C3086.74 1182.6 3066.91 1188.2 3049.18 1199.4C3031.91 1210.13 3018.38 1225.07 3008.58 1244.2C2998.78 1262.87 2994.11 1284.1 2994.58 1307.9C2994.11 1331.7 2998.78 1353.17 3008.58 1372.3C3018.38 1390.97 3031.91 1405.9 3049.18 1417.1C3066.91 1427.83 3086.74 1433.2 3108.68 1433.2ZM3344.29 1492L3188.89 1124.5H3266.59L3378.59 1399.6L3365.29 1405.9L3484.99 1124.5H3559.19L3396.09 1492H3344.29ZM3497.06 1492V1124.5H3569.16V1492H3497.06ZM3532.06 1043.3C3516.66 1043.3 3504.76 1039.33 3496.36 1031.4C3487.96 1023.47 3483.76 1012.27 3483.76 997.8C3483.76 984.267 3487.96 973.3 3496.36 964.9C3505.22 956.5 3517.12 952.3 3532.06 952.3C3547.46 952.3 3559.36 956.267 3567.76 964.2C3576.16 972.133 3580.36 983.333 3580.36 997.8C3580.36 1011.33 3575.92 1022.3 3567.06 1030.7C3558.66 1039.1 3546.99 1043.3 3532.06 1043.3ZM3704.48 1653C3678.35 1653 3652.22 1648.8 3626.08 1640.4C3600.42 1632.47 3579.65 1621.97 3563.78 1608.9L3590.38 1552.9C3599.72 1559.9 3610.68 1565.97 3623.28 1571.1C3635.88 1576.7 3649.18 1580.9 3663.18 1583.7C3677.18 1586.97 3690.95 1588.6 3704.48 1588.6C3730.15 1588.6 3751.62 1584.4 3768.88 1576C3786.15 1567.6 3799.22 1555.23 3808.08 1538.9C3816.95 1522.57 3821.38 1502.27 3821.38 1478V1407.3L3829.08 1412.2C3826.75 1426.67 3819.05 1440.67 3805.98 1454.2C3793.38 1467.27 3777.52 1478 3758.38 1486.4C3739.25 1494.8 3719.65 1499 3699.58 1499C3664.58 1499 3633.32 1490.83 3605.78 1474.5C3578.72 1457.7 3557.25 1435.07 3541.38 1406.6C3525.52 1377.67 3517.58 1344.77 3517.58 1307.9C3517.58 1271.03 3525.28 1238.37 3540.68 1209.9C3556.55 1180.97 3578.02 1158.33 3605.08 1142C3632.62 1125.2 3663.42 1116.8 3697.48 1116.8C3711.48 1116.8 3725.02 1118.67 3738.08 1122.4C3751.15 1125.67 3763.28 1130.57 3774.48 1137.1C3785.68 1143.17 3795.72 1149.93 3804.58 1157.4C3813.45 1164.87 3820.68 1172.8 3826.28 1181.2C3831.88 1189.6 3835.38 1197.53 3836.78 1205L3821.38 1210.6V1124.5H3893.48V1469.6C3893.48 1499 3889.05 1524.9 3880.18 1547.3C3871.78 1570.17 3859.42 1589.3 3843.08 1604.7C3826.75 1620.57 3806.92 1632.47 3783.58 1640.4C3760.25 1648.8 3733.88 1653 3704.48 1653ZM3707.28 1432.5C3730.15 1432.5 3750.45 1427.13 3768.18 1416.4C3785.92 1405.67 3799.68 1390.97 3809.48 1372.3C3819.28 1353.63 3824.18 1332.17 3824.18 1307.9C3824.18 1283.63 3819.05 1262.17 3808.78 1243.5C3798.98 1224.37 3785.22 1209.43 3767.48 1198.7C3750.22 1187.97 3730.15 1182.6 3707.28 1182.6C3684.88 1182.6 3664.82 1188.2 3647.08 1199.4C3629.82 1210.13 3616.05 1225.07 3605.78 1244.2C3595.98 1262.87 3591.08 1284.1 3591.08 1307.9C3591.08 1331.7 3595.98 1353.17 3605.78 1372.3C3616.05 1390.97 3629.82 1405.67 3647.08 1416.4C3664.82 1427.13 3684.88 1432.5 3707.28 1432.5ZM4019.77 1499C3983.84 1499 3951.64 1490.83 3923.17 1474.5C3895.17 1457.7 3873.01 1435.07 3856.67 1406.6C3840.34 1377.67 3832.17 1344.77 3832.17 1307.9C3832.17 1271.03 3840.34 1238.37 3856.67 1209.9C3873.01 1180.97 3895.17 1158.33 3923.17 1142C3951.64 1125.2 3983.84 1116.8 4019.77 1116.8C4055.24 1116.8 4086.97 1125.2 4114.97 1142C4143.44 1158.33 4165.84 1180.97 4182.17 1209.9C4198.51 1238.37 4206.67 1271.03 4206.67 1307.9C4206.67 1344.77 4198.51 1377.67 4182.17 1406.6C4165.84 1435.07 4143.44 1457.7 4114.97 1474.5C4086.97 1490.83 4055.24 1499 4019.77 1499ZM4019.77 1433.2C4041.71 1433.2 4061.31 1427.83 4078.57 1417.1C4095.84 1405.9 4109.37 1390.97 4119.17 1372.3C4128.97 1353.17 4133.64 1331.7 4133.17 1307.9C4133.64 1283.63 4128.97 1262.17 4119.17 1243.5C4109.37 1224.37 4095.84 1209.43 4078.57 1198.7C4061.31 1187.97 4041.71 1182.6 4019.77 1182.6C3997.84 1182.6 3978.01 1188.2 3960.27 1199.4C3943.01 1210.13 3929.47 1225.07 3919.67 1244.2C3909.87 1262.87 3905.21 1284.1 3905.67 1307.9C3905.21 1331.7 3909.87 1353.17 3919.67 1372.3C3929.47 1390.97 3943.01 1405.9 3960.27 1417.1C3978.01 1427.83 3997.84 1433.2 4019.77 1433.2Z" fill="black"/>
</svg>
