<svg width="2478" height="2672" viewBox="0 0 2478 2672" fill="none" xmlns="http://www.w3.org/2000/svg">
<path d="M1213 1871V2451.17C1213 2477.15 1225.41 2535.06 1275.04 2558.86C1324.67 2582.66 1643.69 2568.78 1797 2558.86" stroke="#E58C22" stroke-width="50"/>
<path d="M1385.54 913.583L1371.85 333.571C1371.24 307.598 1382.28 249.412 1431.33 224.45C1480.39 199.489 1799.65 205.84 1953.15 212.136" stroke="#E68C22" stroke-width="50"/>
<path d="M1675.86 1405.19L2255.99 1398.38C2281.97 1398.07 2339.73 1384.99 2362.94 1335.08C2386.16 1285.17 2368.53 966.333 2356.81 813.154" stroke="#2ABDEC" stroke-width="50"/>
<path d="M801.899 1378L221.809 1387.83C195.833 1388.27 138.142 1401.66 115.189 1451.68C92.2357 1501.71 111.52 1820.45 124.031 1973.57" stroke="#E58C22" stroke-width="50"/>
<path d="M1095.83 913.99L1092.65 333.825C1092.51 307.845 1079.79 250.004 1030.02 226.479C980.261 202.953 661.321 218.58 508.072 229.334" stroke="#2ABDEC" stroke-width="50"/>
<rect x="663.528" y="815.8" width="1073.12" height="1172.91" rx="200" transform="rotate(-1.25085 663.528 815.8)" fill="#0B5FDD"/>
<ellipse cx="270.5" cy="49" rx="0.5" ry="49" fill="#D9D9D9"/>
<ellipse cx="456" cy="198.5" rx="101" ry="100.5" fill="#2ABDEC"/>
<ellipse cx="2377" cy="712.5" rx="101" ry="100.5" fill="#2ABDEC"/>
<ellipse cx="2023" cy="212.5" rx="101" ry="100.5" fill="#E58C22"/>
<ellipse cx="1863" cy="2571.5" rx="101" ry="100.5" fill="#E58C22"/>
<ellipse cx="101" cy="2074.5" rx="101" ry="100.5" fill="#E58C22"/>
</svg>
