<svg width="1549" height="387" viewBox="0 0 1549 387" fill="none" xmlns="http://www.w3.org/2000/svg">
<rect y="1.74023" width="1549" height="372.679" fill="white"/>
<path d="M564.94 189V168H573.49C574.63 168 575.66 168.29 576.58 168.87C577.52 169.43 578.27 170.2 578.83 171.18C579.39 172.16 579.67 173.25 579.67 174.45C579.67 175.65 579.39 176.74 578.83 177.72C578.27 178.7 577.52 179.49 576.58 180.09C575.66 180.67 574.63 180.96 573.49 180.96H568.18V189H564.94ZM568.18 177.84H573.43C573.97 177.84 574.46 177.69 574.9 177.39C575.34 177.07 575.69 176.66 575.95 176.16C576.23 175.64 576.37 175.07 576.37 174.45C576.37 173.83 576.23 173.27 575.95 172.77C575.69 172.27 575.34 171.87 574.9 171.57C574.46 171.27 573.97 171.12 573.43 171.12H568.18V177.84ZM577.174 189V173.25H580.294V178.2L579.994 177C580.214 176.24 580.584 175.55 581.104 174.93C581.644 174.31 582.254 173.82 582.934 173.46C583.634 173.1 584.354 172.92 585.094 172.92C585.434 172.92 585.754 172.95 586.054 173.01C586.374 173.07 586.624 173.14 586.804 173.22L585.994 176.58C585.754 176.48 585.484 176.4 585.184 176.34C584.904 176.26 584.624 176.22 584.344 176.22C583.804 176.22 583.284 176.33 582.784 176.55C582.304 176.75 581.874 177.04 581.494 177.42C581.134 177.78 580.844 178.21 580.624 178.71C580.404 179.19 580.294 179.72 580.294 180.3V189H577.174ZM589.679 189.3C588.139 189.3 586.759 188.95 585.539 188.25C584.339 187.53 583.389 186.56 582.689 185.34C581.989 184.1 581.639 182.69 581.639 181.11C581.639 179.53 581.989 178.13 582.689 176.91C583.389 175.67 584.339 174.7 585.539 174C586.759 173.28 588.139 172.92 589.679 172.92C591.199 172.92 592.559 173.28 593.759 174C594.979 174.7 595.939 175.67 596.639 176.91C597.339 178.13 597.689 179.53 597.689 181.11C597.689 182.69 597.339 184.1 596.639 185.34C595.939 186.56 594.979 187.53 593.759 188.25C592.559 188.95 591.199 189.3 589.679 189.3ZM589.679 186.48C590.619 186.48 591.459 186.25 592.199 185.79C592.939 185.31 593.519 184.67 593.939 183.87C594.359 183.05 594.559 182.13 594.539 181.11C594.559 180.07 594.359 179.15 593.939 178.35C593.519 177.53 592.939 176.89 592.199 176.43C591.459 175.97 590.619 175.74 589.679 175.74C588.739 175.74 587.889 175.98 587.129 176.46C586.389 176.92 585.809 177.56 585.389 178.38C584.969 179.18 584.769 180.09 584.789 181.11C584.769 182.13 584.969 183.05 585.389 183.87C585.809 184.67 586.389 185.31 587.129 185.79C587.889 186.25 588.739 186.48 589.679 186.48ZM599.777 189L593.117 173.25H596.447L601.247 185.04L600.677 185.31L605.807 173.25H608.987L601.997 189H599.777ZM606.324 189V173.25H609.414V189H606.324ZM607.824 169.77C607.164 169.77 606.654 169.6 606.294 169.26C605.934 168.92 605.754 168.44 605.754 167.82C605.754 167.24 605.934 166.77 606.294 166.41C606.674 166.05 607.184 165.87 607.824 165.87C608.484 165.87 608.994 166.04 609.354 166.38C609.714 166.72 609.894 167.2 609.894 167.82C609.894 168.4 609.704 168.87 609.324 169.23C608.964 169.59 608.464 169.77 607.824 169.77ZM614.734 189.3C613.294 189.3 612.004 188.95 610.864 188.25C609.744 187.53 608.854 186.56 608.194 185.34C607.534 184.1 607.204 182.69 607.204 181.11C607.204 179.53 607.524 178.13 608.164 176.91C608.824 175.67 609.714 174.7 610.834 174C611.954 173.28 613.224 172.92 614.644 172.92C615.424 172.92 616.174 173.05 616.894 173.31C617.634 173.55 618.294 173.89 618.874 174.33C619.454 174.75 619.904 175.22 620.224 175.74C620.564 176.24 620.734 176.75 620.734 177.27L619.834 177.33V166.8H622.924V189H619.834V185.25H620.434C620.434 185.73 620.274 186.21 619.954 186.69C619.634 187.15 619.204 187.58 618.664 187.98C618.144 188.38 617.534 188.7 616.834 188.94C616.154 189.18 615.454 189.3 614.734 189.3ZM615.154 186.63C616.094 186.63 616.924 186.39 617.644 185.91C618.364 185.43 618.924 184.78 619.324 183.96C619.744 183.12 619.954 182.17 619.954 181.11C619.954 180.05 619.744 179.11 619.324 178.29C618.924 177.45 618.364 176.79 617.644 176.31C616.924 175.83 616.094 175.59 615.154 175.59C614.214 175.59 613.384 175.83 612.664 176.31C611.944 176.79 611.374 177.45 610.954 178.29C610.554 179.11 610.354 180.05 610.354 181.11C610.354 182.17 610.554 183.12 610.954 183.96C611.374 184.78 611.944 185.43 612.664 185.91C613.384 186.39 614.214 186.63 615.154 186.63ZM621.688 189V173.25H624.778V189H621.688ZM623.188 169.77C622.528 169.77 622.018 169.6 621.658 169.26C621.298 168.92 621.118 168.44 621.118 167.82C621.118 167.24 621.298 166.77 621.658 166.41C622.038 166.05 622.548 165.87 623.188 165.87C623.848 165.87 624.358 166.04 624.718 166.38C625.078 166.72 625.258 167.2 625.258 167.82C625.258 168.4 625.068 168.87 624.688 169.23C624.328 169.59 623.828 169.77 623.188 169.77ZM623.527 189V173.25H626.617V176.49L626.077 176.85C626.277 176.15 626.667 175.51 627.247 174.93C627.827 174.33 628.517 173.85 629.317 173.49C630.117 173.11 630.937 172.92 631.777 172.92C632.977 172.92 633.977 173.16 634.777 173.64C635.577 174.1 636.177 174.81 636.577 175.77C636.977 176.73 637.177 177.94 637.177 179.4V189H634.087V179.61C634.087 178.71 633.967 177.97 633.727 177.39C633.487 176.79 633.117 176.36 632.617 176.1C632.117 175.82 631.497 175.7 630.757 175.74C630.157 175.74 629.607 175.84 629.107 176.04C628.607 176.22 628.167 176.48 627.787 176.82C627.427 177.16 627.137 177.56 626.917 178.02C626.717 178.46 626.617 178.94 626.617 179.46V189H625.087C624.827 189 624.567 189 624.307 189C624.047 189 623.787 189 623.527 189ZM642.419 195.9C641.299 195.9 640.179 195.72 639.059 195.36C637.959 195.02 637.069 194.57 636.389 194.01L637.529 191.61C637.929 191.91 638.399 192.17 638.939 192.39C639.479 192.63 640.049 192.81 640.649 192.93C641.249 193.07 641.839 193.14 642.419 193.14C643.519 193.14 644.439 192.96 645.179 192.6C645.919 192.24 646.479 191.71 646.859 191.01C647.239 190.31 647.429 189.44 647.429 188.4V185.37L647.759 185.58C647.659 186.2 647.329 186.8 646.769 187.38C646.229 187.94 645.549 188.4 644.729 188.76C643.909 189.12 643.069 189.3 642.209 189.3C640.709 189.3 639.369 188.95 638.189 188.25C637.029 187.53 636.109 186.56 635.429 185.34C634.749 184.1 634.409 182.69 634.409 181.11C634.409 179.53 634.739 178.13 635.399 176.91C636.079 175.67 636.999 174.7 638.159 174C639.339 173.28 640.659 172.92 642.119 172.92C642.719 172.92 643.299 173 643.859 173.16C644.419 173.3 644.939 173.51 645.419 173.79C645.899 174.05 646.329 174.34 646.709 174.66C647.089 174.98 647.399 175.32 647.639 175.68C647.879 176.04 648.029 176.38 648.089 176.7L647.429 176.94V173.25H650.519V188.04C650.519 189.3 650.329 190.41 649.949 191.37C649.589 192.35 649.059 193.17 648.359 193.83C647.659 194.51 646.809 195.02 645.809 195.36C644.809 195.72 643.679 195.9 642.419 195.9ZM642.539 186.45C643.519 186.45 644.389 186.22 645.149 185.76C645.909 185.3 646.499 184.67 646.919 183.87C647.339 183.07 647.549 182.15 647.549 181.11C647.549 180.07 647.329 179.15 646.889 178.35C646.469 177.53 645.879 176.89 645.119 176.43C644.379 175.97 643.519 175.74 642.539 175.74C641.579 175.74 640.719 175.98 639.959 176.46C639.219 176.92 638.629 177.56 638.189 178.38C637.769 179.18 637.559 180.09 637.559 181.11C637.559 182.13 637.769 183.05 638.189 183.87C638.629 184.67 639.219 185.3 639.959 185.76C640.719 186.22 641.579 186.45 642.539 186.45ZM663.156 189.3C661.616 189.3 660.236 188.95 659.016 188.25C657.816 187.53 656.866 186.56 656.166 185.34C655.466 184.1 655.116 182.69 655.116 181.11C655.116 179.53 655.466 178.13 656.166 176.91C656.866 175.67 657.816 174.7 659.016 174C660.236 173.28 661.616 172.92 663.156 172.92C664.676 172.92 666.036 173.28 667.236 174C668.456 174.7 669.416 175.67 670.116 176.91C670.816 178.13 671.166 179.53 671.166 181.11C671.166 182.69 670.816 184.1 670.116 185.34C669.416 186.56 668.456 187.53 667.236 188.25C666.036 188.95 664.676 189.3 663.156 189.3ZM663.156 186.48C664.096 186.48 664.936 186.25 665.676 185.79C666.416 185.31 666.996 184.67 667.416 183.87C667.836 183.05 668.036 182.13 668.016 181.11C668.036 180.07 667.836 179.15 667.416 178.35C666.996 177.53 666.416 176.89 665.676 176.43C664.936 175.97 664.096 175.74 663.156 175.74C662.216 175.74 661.366 175.98 660.606 176.46C659.866 176.92 659.286 177.56 658.866 178.38C658.446 179.18 658.246 180.09 658.266 181.11C658.246 182.13 658.446 183.05 658.866 183.87C659.286 184.67 659.866 185.31 660.606 185.79C661.366 186.25 662.216 186.48 663.156 186.48ZM674.053 189.3C672.933 189.3 671.953 189.04 671.113 188.52C670.293 188 669.653 187.27 669.193 186.33C668.753 185.39 668.533 184.27 668.533 182.97V173.25H671.623V182.13C671.623 183.05 671.763 183.85 672.043 184.53C672.343 185.19 672.763 185.7 673.303 186.06C673.863 186.42 674.533 186.6 675.313 186.6C675.893 186.6 676.423 186.51 676.903 186.33C677.383 186.13 677.793 185.86 678.133 185.52C678.493 185.18 678.773 184.77 678.973 184.29C679.173 183.81 679.273 183.29 679.273 182.73V173.25H682.363V189H679.273V185.7L679.813 185.34C679.573 186.08 679.163 186.75 678.583 187.35C678.023 187.95 677.353 188.43 676.573 188.79C675.793 189.13 674.953 189.3 674.053 189.3ZM680.697 189V173.25H683.817V178.2L683.517 177C683.737 176.24 684.107 175.55 684.627 174.93C685.167 174.31 685.777 173.82 686.457 173.46C687.157 173.1 687.877 172.92 688.617 172.92C688.957 172.92 689.277 172.95 689.577 173.01C689.897 173.07 690.147 173.14 690.327 173.22L689.517 176.58C689.277 176.48 689.007 176.4 688.707 176.34C688.427 176.26 688.147 176.22 687.867 176.22C687.327 176.22 686.807 176.33 686.307 176.55C685.827 176.75 685.397 177.04 685.017 177.42C684.657 177.78 684.367 178.21 684.147 178.71C683.927 179.19 683.817 179.72 683.817 180.3V189H680.697ZM701.371 189.3C699.751 189.3 698.311 188.96 697.051 188.28C695.811 187.58 694.831 186.63 694.111 185.43C693.411 184.23 693.061 182.85 693.061 181.29C693.061 180.05 693.261 178.92 693.661 177.9C694.061 176.88 694.611 176 695.311 175.26C696.031 174.5 696.881 173.92 697.861 173.52C698.861 173.1 699.941 172.89 701.101 172.89C702.121 172.89 703.071 173.09 703.951 173.49C704.831 173.87 705.591 174.4 706.231 175.08C706.891 175.76 707.391 176.57 707.731 177.51C708.091 178.43 708.261 179.44 708.241 180.54L708.211 181.86H695.341L694.651 179.4H705.541L705.091 179.91V179.19C705.031 178.53 704.811 177.94 704.431 177.42C704.051 176.9 703.571 176.49 702.991 176.19C702.411 175.89 701.781 175.74 701.101 175.74C700.021 175.74 699.111 175.95 698.371 176.37C697.631 176.77 697.071 177.37 696.691 178.17C696.311 178.95 696.121 179.92 696.121 181.08C696.121 182.18 696.351 183.14 696.811 183.96C697.271 184.76 697.921 185.38 698.761 185.82C699.601 186.26 700.571 186.48 701.671 186.48C702.451 186.48 703.171 186.35 703.831 186.09C704.511 185.83 705.241 185.36 706.021 184.68L707.581 186.87C707.101 187.35 706.511 187.77 705.811 188.13C705.131 188.49 704.401 188.78 703.621 189C702.861 189.2 702.111 189.3 701.371 189.3ZM715.982 189L710.882 182.37L710.432 181.8L703.802 173.25H707.702L712.712 179.79L713.222 180.45L719.762 189H715.982ZM703.832 189L710.042 180.9L711.872 183.09L707.492 189H703.832ZM713.402 181.38L711.692 179.22L715.562 173.25H719.222L713.402 181.38ZM716.357 195.6V173.25H719.477V176.85L718.997 176.58C719.117 175.98 719.457 175.41 720.017 174.87C720.577 174.31 721.257 173.86 722.057 173.52C722.877 173.16 723.717 172.98 724.577 172.98C725.997 172.98 727.257 173.33 728.357 174.03C729.457 174.73 730.327 175.69 730.967 176.91C731.607 178.13 731.927 179.53 731.927 181.11C731.927 182.67 731.607 184.07 730.967 185.31C730.347 186.53 729.487 187.5 728.387 188.22C727.287 188.92 726.047 189.27 724.667 189.27C723.747 189.27 722.857 189.09 721.997 188.73C721.137 188.35 720.407 187.87 719.807 187.29C719.207 186.71 718.837 186.11 718.697 185.49L719.477 185.07V195.6H716.357ZM724.157 186.42C725.077 186.42 725.897 186.19 726.617 185.73C727.337 185.27 727.907 184.64 728.327 183.84C728.747 183.04 728.957 182.13 728.957 181.11C728.957 180.09 728.747 179.19 728.327 178.41C727.927 177.61 727.367 176.98 726.647 176.52C725.927 176.06 725.097 175.83 724.157 175.83C723.217 175.83 722.387 176.06 721.667 176.52C720.947 176.96 720.377 177.58 719.957 178.38C719.537 179.18 719.327 180.09 719.327 181.11C719.327 182.13 719.537 183.04 719.957 183.84C720.377 184.64 720.947 185.27 721.667 185.73C722.387 186.19 723.217 186.42 724.157 186.42ZM736.633 189.3C735.013 189.3 733.573 188.96 732.313 188.28C731.073 187.58 730.093 186.63 729.373 185.43C728.673 184.23 728.323 182.85 728.323 181.29C728.323 180.05 728.523 178.92 728.923 177.9C729.323 176.88 729.873 176 730.573 175.26C731.293 174.5 732.143 173.92 733.123 173.52C734.123 173.1 735.203 172.89 736.363 172.89C737.383 172.89 738.333 173.09 739.213 173.49C740.093 173.87 740.853 174.4 741.493 175.08C742.153 175.76 742.653 176.57 742.993 177.51C743.353 178.43 743.523 179.44 743.503 180.54L743.473 181.86H730.603L729.913 179.4H740.803L740.353 179.91V179.19C740.293 178.53 740.073 177.94 739.693 177.42C739.313 176.9 738.833 176.49 738.253 176.19C737.673 175.89 737.043 175.74 736.363 175.74C735.283 175.74 734.373 175.95 733.633 176.37C732.893 176.77 732.333 177.37 731.953 178.17C731.573 178.95 731.383 179.92 731.383 181.08C731.383 182.18 731.613 183.14 732.073 183.96C732.533 184.76 733.183 185.38 734.023 185.82C734.863 186.26 735.833 186.48 736.933 186.48C737.713 186.48 738.433 186.35 739.093 186.09C739.773 185.83 740.503 185.36 741.283 184.68L742.843 186.87C742.363 187.35 741.773 187.77 741.073 188.13C740.393 188.49 739.663 188.78 738.883 189C738.123 189.2 737.373 189.3 736.633 189.3ZM740.861 189V173.25H743.981V178.2L743.681 177C743.901 176.24 744.271 175.55 744.791 174.93C745.331 174.31 745.941 173.82 746.621 173.46C747.321 173.1 748.041 172.92 748.781 172.92C749.121 172.92 749.441 172.95 749.741 173.01C750.061 173.07 750.311 173.14 750.491 173.22L749.681 176.58C749.441 176.48 749.171 176.4 748.871 176.34C748.591 176.26 748.311 176.22 748.031 176.22C747.491 176.22 746.971 176.33 746.471 176.55C745.991 176.75 745.561 177.04 745.181 177.42C744.821 177.78 744.531 178.21 744.311 178.71C744.091 179.19 743.981 179.72 743.981 180.3V189H740.861ZM749.497 189V169.23H752.587V189H749.497ZM746.227 176.25V173.25H756.247V176.25H746.227ZM753.57 189V173.25H756.66V189H753.57ZM755.07 169.77C754.41 169.77 753.9 169.6 753.54 169.26C753.18 168.92 753 168.44 753 167.82C753 167.24 753.18 166.77 753.54 166.41C753.92 166.05 754.43 165.87 755.07 165.87C755.73 165.87 756.24 166.04 756.6 166.38C756.96 166.72 757.14 167.2 757.14 167.82C757.14 168.4 756.95 168.87 756.57 169.23C756.21 169.59 755.71 169.77 755.07 169.77ZM760.66 189.3C759.34 189.3 758.15 189.07 757.09 188.61C756.03 188.15 755.15 187.47 754.45 186.57L756.55 184.77C757.15 185.47 757.8 185.98 758.5 186.3C759.22 186.6 760.03 186.75 760.93 186.75C761.29 186.75 761.62 186.71 761.92 186.63C762.24 186.53 762.51 186.39 762.73 186.21C762.97 186.03 763.15 185.82 763.27 185.58C763.39 185.32 763.45 185.04 763.45 184.74C763.45 184.22 763.26 183.8 762.88 183.48C762.68 183.34 762.36 183.19 761.92 183.03C761.5 182.85 760.95 182.67 760.27 182.49C759.11 182.19 758.16 181.85 757.42 181.47C756.68 181.09 756.11 180.66 755.71 180.18C755.41 179.8 755.19 179.39 755.05 178.95C754.91 178.49 754.84 177.99 754.84 177.45C754.84 176.79 754.98 176.19 755.26 175.65C755.56 175.09 755.96 174.61 756.46 174.21C756.98 173.79 757.58 173.47 758.26 173.25C758.96 173.03 759.7 172.92 760.48 172.92C761.22 172.92 761.95 173.02 762.67 173.22C763.41 173.42 764.09 173.71 764.71 174.09C765.33 174.47 765.85 174.92 766.27 175.44L764.5 177.39C764.12 177.01 763.7 176.68 763.24 176.4C762.8 176.1 762.35 175.87 761.89 175.71C761.43 175.55 761.01 175.47 760.63 175.47C760.21 175.47 759.83 175.51 759.49 175.59C759.15 175.67 758.86 175.79 758.62 175.95C758.4 176.11 758.23 176.31 758.11 176.55C757.99 176.79 757.93 177.06 757.93 177.36C757.95 177.62 758.01 177.87 758.11 178.11C758.23 178.33 758.39 178.52 758.59 178.68C758.81 178.84 759.14 179.01 759.58 179.19C760.02 179.37 760.58 179.54 761.26 179.7C762.26 179.96 763.08 180.25 763.72 180.57C764.38 180.87 764.9 181.22 765.28 181.62C765.68 182 765.96 182.44 766.12 182.94C766.28 183.44 766.36 184 766.36 184.62C766.36 185.52 766.1 186.33 765.58 187.05C765.08 187.75 764.4 188.3 763.54 188.7C762.68 189.1 761.72 189.3 760.66 189.3ZM771.115 189.3C769.495 189.3 768.055 188.96 766.795 188.28C765.555 187.58 764.575 186.63 763.855 185.43C763.155 184.23 762.805 182.85 762.805 181.29C762.805 180.05 763.005 178.92 763.405 177.9C763.805 176.88 764.355 176 765.055 175.26C765.775 174.5 766.625 173.92 767.605 173.52C768.605 173.1 769.685 172.89 770.845 172.89C771.865 172.89 772.815 173.09 773.695 173.49C774.575 173.87 775.335 174.4 775.975 175.08C776.635 175.76 777.135 176.57 777.475 177.51C777.835 178.43 778.005 179.44 777.985 180.54L777.955 181.86H765.085L764.395 179.4H775.285L774.835 179.91V179.19C774.775 178.53 774.555 177.94 774.175 177.42C773.795 176.9 773.315 176.49 772.735 176.19C772.155 175.89 771.525 175.74 770.845 175.74C769.765 175.74 768.855 175.95 768.115 176.37C767.375 176.77 766.815 177.37 766.435 178.17C766.055 178.95 765.865 179.92 765.865 181.08C765.865 182.18 766.095 183.14 766.555 183.96C767.015 184.76 767.665 185.38 768.505 185.82C769.345 186.26 770.315 186.48 771.415 186.48C772.195 186.48 772.915 186.35 773.575 186.09C774.255 185.83 774.985 185.36 775.765 184.68L777.325 186.87C776.845 187.35 776.255 187.77 775.555 188.13C774.875 188.49 774.145 188.78 773.365 189C772.605 189.2 771.855 189.3 771.115 189.3ZM784.518 189V169.23H787.608V189H784.518ZM781.248 176.25V173.25H791.268V176.25H781.248ZM795.015 189.3C793.475 189.3 792.095 188.95 790.875 188.25C789.675 187.53 788.725 186.56 788.025 185.34C787.325 184.1 786.975 182.69 786.975 181.11C786.975 179.53 787.325 178.13 788.025 176.91C788.725 175.67 789.675 174.7 790.875 174C792.095 173.28 793.475 172.92 795.015 172.92C796.535 172.92 797.895 173.28 799.095 174C800.315 174.7 801.275 175.67 801.975 176.91C802.675 178.13 803.025 179.53 803.025 181.11C803.025 182.69 802.675 184.1 801.975 185.34C801.275 186.56 800.315 187.53 799.095 188.25C797.895 188.95 796.535 189.3 795.015 189.3ZM795.015 186.48C795.955 186.48 796.795 186.25 797.535 185.79C798.275 185.31 798.855 184.67 799.275 183.87C799.695 183.05 799.895 182.13 799.875 181.11C799.895 180.07 799.695 179.15 799.275 178.35C798.855 177.53 798.275 176.89 797.535 176.43C796.795 175.97 795.955 175.74 795.015 175.74C794.075 175.74 793.225 175.98 792.465 176.46C791.725 176.92 791.145 177.56 790.725 178.38C790.305 179.18 790.105 180.09 790.125 181.11C790.105 182.13 790.305 183.05 790.725 183.87C791.145 184.67 791.725 185.31 792.465 185.79C793.225 186.25 794.075 186.48 795.015 186.48ZM803.676 189L798.306 173.25L801.426 173.22L805.266 185.01L804.576 184.95L808.746 175.74H810.606L814.806 184.98L813.996 185.04L817.866 173.25H820.986L815.676 189H813.546L809.166 178.98L809.856 179.07L805.776 189H803.676ZM823.421 189.3C822.121 189.3 820.931 188.94 819.851 188.22C818.791 187.5 817.941 186.52 817.301 185.28C816.661 184.04 816.341 182.64 816.341 181.08C816.341 179.5 816.661 178.1 817.301 176.88C817.961 175.64 818.841 174.67 819.941 173.97C821.061 173.27 822.311 172.92 823.691 172.92C824.511 172.92 825.261 173.04 825.941 173.28C826.621 173.52 827.211 173.86 827.711 174.3C828.231 174.72 828.651 175.21 828.971 175.77C829.311 176.33 829.521 176.93 829.601 177.57L828.911 177.33V173.25H832.031V189H828.911V185.25L829.631 185.04C829.511 185.58 829.261 186.11 828.881 186.63C828.521 187.13 828.051 187.58 827.471 187.98C826.911 188.38 826.281 188.7 825.581 188.94C824.901 189.18 824.181 189.3 823.421 189.3ZM824.231 186.45C825.171 186.45 826.001 186.22 826.721 185.76C827.441 185.3 828.001 184.67 828.401 183.87C828.821 183.05 829.031 182.12 829.031 181.08C829.031 180.06 828.821 179.15 828.401 178.35C828.001 177.55 827.441 176.92 826.721 176.46C826.001 176 825.171 175.77 824.231 175.77C823.311 175.77 822.491 176 821.771 176.46C821.071 176.92 820.511 177.55 820.091 178.35C819.691 179.15 819.491 180.06 819.491 181.08C819.491 182.12 819.691 183.05 820.091 183.87C820.511 184.67 821.071 185.3 821.771 185.76C822.491 186.22 823.311 186.45 824.231 186.45ZM830.346 189V173.25H833.466V178.2L833.166 177C833.386 176.24 833.756 175.55 834.276 174.93C834.816 174.31 835.426 173.82 836.106 173.46C836.806 173.1 837.526 172.92 838.266 172.92C838.606 172.92 838.926 172.95 839.226 173.01C839.546 173.07 839.796 173.14 839.976 173.22L839.166 176.58C838.926 176.48 838.656 176.4 838.356 176.34C838.076 176.26 837.796 176.22 837.516 176.22C836.976 176.22 836.456 176.33 835.956 176.55C835.476 176.75 835.046 177.04 834.666 177.42C834.306 177.78 834.016 178.21 833.796 178.71C833.576 179.19 833.466 179.72 833.466 180.3V189H830.346ZM842.341 189.3C840.901 189.3 839.611 188.95 838.471 188.25C837.351 187.53 836.461 186.56 835.801 185.34C835.141 184.1 834.811 182.69 834.811 181.11C834.811 179.53 835.131 178.13 835.771 176.91C836.431 175.67 837.321 174.7 838.441 174C839.561 173.28 840.831 172.92 842.251 172.92C843.031 172.92 843.781 173.05 844.501 173.31C845.241 173.55 845.901 173.89 846.481 174.33C847.061 174.75 847.511 175.22 847.831 175.74C848.171 176.24 848.341 176.75 848.341 177.27L847.441 177.33V166.8H850.531V189H847.441V185.25H848.041C848.041 185.73 847.881 186.21 847.561 186.69C847.241 187.15 846.811 187.58 846.271 187.98C845.751 188.38 845.141 188.7 844.441 188.94C843.761 189.18 843.061 189.3 842.341 189.3ZM842.761 186.63C843.701 186.63 844.531 186.39 845.251 185.91C845.971 185.43 846.531 184.78 846.931 183.96C847.351 183.12 847.561 182.17 847.561 181.11C847.561 180.05 847.351 179.11 846.931 178.29C846.531 177.45 845.971 176.79 845.251 176.31C844.531 175.83 843.701 175.59 842.761 175.59C841.821 175.59 840.991 175.83 840.271 176.31C839.551 176.79 838.981 177.45 838.561 178.29C838.161 179.11 837.961 180.05 837.961 181.11C837.961 182.17 838.161 183.12 838.561 183.96C838.981 184.78 839.551 185.43 840.271 185.91C840.991 186.39 841.821 186.63 842.761 186.63ZM854.035 189.3C852.715 189.3 851.525 189.07 850.465 188.61C849.405 188.15 848.525 187.47 847.825 186.57L849.925 184.77C850.525 185.47 851.175 185.98 851.875 186.3C852.595 186.6 853.405 186.75 854.305 186.75C854.665 186.75 854.995 186.71 855.295 186.63C855.615 186.53 855.885 186.39 856.105 186.21C856.345 186.03 856.525 185.82 856.645 185.58C856.765 185.32 856.825 185.04 856.825 184.74C856.825 184.22 856.635 183.8 856.255 183.48C856.055 183.34 855.735 183.19 855.295 183.03C854.875 182.85 854.325 182.67 853.645 182.49C852.485 182.19 851.535 181.85 850.795 181.47C850.055 181.09 849.485 180.66 849.085 180.18C848.785 179.8 848.565 179.39 848.425 178.95C848.285 178.49 848.215 177.99 848.215 177.45C848.215 176.79 848.355 176.19 848.635 175.65C848.935 175.09 849.335 174.61 849.835 174.21C850.355 173.79 850.955 173.47 851.635 173.25C852.335 173.03 853.075 172.92 853.855 172.92C854.595 172.92 855.325 173.02 856.045 173.22C856.785 173.42 857.465 173.71 858.085 174.09C858.705 174.47 859.225 174.92 859.645 175.44L857.875 177.39C857.495 177.01 857.075 176.68 856.615 176.4C856.175 176.1 855.725 175.87 855.265 175.71C854.805 175.55 854.385 175.47 854.005 175.47C853.585 175.47 853.205 175.51 852.865 175.59C852.525 175.67 852.235 175.79 851.995 175.95C851.775 176.11 851.605 176.31 851.485 176.55C851.365 176.79 851.305 177.06 851.305 177.36C851.325 177.62 851.385 177.87 851.485 178.11C851.605 178.33 851.765 178.52 851.965 178.68C852.185 178.84 852.515 179.01 852.955 179.19C853.395 179.37 853.955 179.54 854.635 179.7C855.635 179.96 856.455 180.25 857.095 180.57C857.755 180.87 858.275 181.22 858.655 181.62C859.055 182 859.335 182.44 859.495 182.94C859.655 183.44 859.735 184 859.735 184.62C859.735 185.52 859.475 186.33 858.955 187.05C858.455 187.75 857.775 188.3 856.915 188.7C856.055 189.1 855.095 189.3 854.035 189.3ZM867.005 195.9L870.185 188.55L870.215 191.01L862.355 173.25H865.955L870.875 184.83C870.975 185.03 871.095 185.34 871.235 185.76C871.375 186.16 871.495 186.56 871.595 186.96L870.815 187.14C870.975 186.72 871.125 186.3 871.265 185.88C871.425 185.46 871.575 185.04 871.715 184.62L875.825 173.25H879.485L873.005 189L870.335 195.9H867.005ZM882.584 189.3C881.044 189.3 879.664 188.95 878.444 188.25C877.244 187.53 876.294 186.56 875.594 185.34C874.894 184.1 874.544 182.69 874.544 181.11C874.544 179.53 874.894 178.13 875.594 176.91C876.294 175.67 877.244 174.7 878.444 174C879.664 173.28 881.044 172.92 882.584 172.92C884.104 172.92 885.464 173.28 886.664 174C887.884 174.7 888.844 175.67 889.544 176.91C890.244 178.13 890.594 179.53 890.594 181.11C890.594 182.69 890.244 184.1 889.544 185.34C888.844 186.56 887.884 187.53 886.664 188.25C885.464 188.95 884.104 189.3 882.584 189.3ZM882.584 186.48C883.524 186.48 884.364 186.25 885.104 185.79C885.844 185.31 886.424 184.67 886.844 183.87C887.264 183.05 887.464 182.13 887.444 181.11C887.464 180.07 887.264 179.15 886.844 178.35C886.424 177.53 885.844 176.89 885.104 176.43C884.364 175.97 883.524 175.74 882.584 175.74C881.644 175.74 880.794 175.98 880.034 176.46C879.294 176.92 878.714 177.56 878.294 178.38C877.874 179.18 877.674 180.09 877.694 181.11C877.674 182.13 877.874 183.05 878.294 183.87C878.714 184.67 879.294 185.31 880.034 185.79C880.794 186.25 881.644 186.48 882.584 186.48ZM893.481 189.3C892.361 189.3 891.381 189.04 890.541 188.52C889.721 188 889.081 187.27 888.621 186.33C888.181 185.39 887.961 184.27 887.961 182.97V173.25H891.051V182.13C891.051 183.05 891.191 183.85 891.471 184.53C891.771 185.19 892.191 185.7 892.731 186.06C893.291 186.42 893.961 186.6 894.741 186.6C895.321 186.6 895.851 186.51 896.331 186.33C896.811 186.13 897.221 185.86 897.561 185.52C897.921 185.18 898.201 184.77 898.401 184.29C898.601 183.81 898.701 183.29 898.701 182.73V173.25H901.791V189H898.701V185.7L899.241 185.34C899.001 186.08 898.591 186.75 898.011 187.35C897.451 187.95 896.781 188.43 896.001 188.79C895.221 189.13 894.381 189.3 893.481 189.3ZM900.125 189V173.25H903.245V178.2L902.945 177C903.165 176.24 903.535 175.55 904.055 174.93C904.595 174.31 905.205 173.82 905.885 173.46C906.585 173.1 907.305 172.92 908.045 172.92C908.385 172.92 908.705 172.95 909.005 173.01C909.325 173.07 909.575 173.14 909.755 173.22L908.945 176.58C908.705 176.48 908.435 176.4 908.135 176.34C907.855 176.26 907.575 176.22 907.295 176.22C906.755 176.22 906.235 176.33 905.735 176.55C905.255 176.75 904.825 177.04 904.445 177.42C904.085 177.78 903.795 178.21 903.575 178.71C903.355 179.19 903.245 179.72 903.245 180.3V189H900.125ZM916.913 189.3C916.233 189.3 915.553 189.19 914.873 188.97C914.213 188.75 913.603 188.46 913.043 188.1C912.503 187.72 912.043 187.31 911.663 186.87C911.303 186.41 911.063 185.95 910.943 185.49L911.723 185.07V188.91H908.633V166.8H911.723V176.85L911.243 176.58C911.343 176.12 911.563 175.68 911.903 175.26C912.243 174.82 912.673 174.43 913.193 174.09C913.733 173.73 914.313 173.45 914.933 173.25C915.553 173.03 916.183 172.92 916.823 172.92C918.243 172.92 919.503 173.27 920.603 173.97C921.703 174.67 922.573 175.64 923.213 176.88C923.853 178.1 924.173 179.5 924.173 181.08C924.173 182.66 923.853 184.07 923.213 185.31C922.593 186.55 921.733 187.53 920.633 188.25C919.533 188.95 918.293 189.3 916.913 189.3ZM916.403 186.48C917.323 186.48 918.143 186.25 918.863 185.79C919.583 185.31 920.153 184.67 920.573 183.87C920.993 183.05 921.203 182.12 921.203 181.08C921.203 180.06 920.993 179.15 920.573 178.35C920.173 177.53 919.613 176.89 918.893 176.43C918.173 175.97 917.343 175.74 916.403 175.74C915.463 175.74 914.633 175.97 913.913 176.43C913.193 176.89 912.623 177.53 912.203 178.35C911.783 179.15 911.573 180.06 911.573 181.08C911.573 182.12 911.783 183.05 912.203 183.87C912.623 184.67 913.193 185.31 913.913 185.79C914.633 186.25 915.463 186.48 916.403 186.48ZM927.049 189.3C925.929 189.3 924.949 189.04 924.109 188.52C923.289 188 922.649 187.27 922.189 186.33C921.749 185.39 921.529 184.27 921.529 182.97V173.25H924.619V182.13C924.619 183.05 924.759 183.85 925.039 184.53C925.339 185.19 925.759 185.7 926.299 186.06C926.859 186.42 927.529 186.6 928.309 186.6C928.889 186.6 929.419 186.51 929.899 186.33C930.379 186.13 930.789 185.86 931.129 185.52C931.489 185.18 931.769 184.77 931.969 184.29C932.169 183.81 932.269 183.29 932.269 182.73V173.25H935.359V189H932.269V185.7L932.809 185.34C932.569 186.08 932.159 186.75 931.579 187.35C931.019 187.95 930.349 188.43 929.569 188.79C928.789 189.13 927.949 189.3 927.049 189.3ZM938.943 189.3C937.623 189.3 936.433 189.07 935.373 188.61C934.313 188.15 933.433 187.47 932.733 186.57L934.833 184.77C935.433 185.47 936.083 185.98 936.783 186.3C937.503 186.6 938.313 186.75 939.213 186.75C939.573 186.75 939.903 186.71 940.203 186.63C940.523 186.53 940.793 186.39 941.013 186.21C941.253 186.03 941.433 185.82 941.553 185.58C941.673 185.32 941.733 185.04 941.733 184.74C941.733 184.22 941.543 183.8 941.163 183.48C940.963 183.34 940.643 183.19 940.203 183.03C939.783 182.85 939.233 182.67 938.553 182.49C937.393 182.19 936.443 181.85 935.703 181.47C934.963 181.09 934.393 180.66 933.993 180.18C933.693 179.8 933.473 179.39 933.333 178.95C933.193 178.49 933.123 177.99 933.123 177.45C933.123 176.79 933.263 176.19 933.543 175.65C933.843 175.09 934.243 174.61 934.743 174.21C935.263 173.79 935.863 173.47 936.543 173.25C937.243 173.03 937.983 172.92 938.763 172.92C939.503 172.92 940.233 173.02 940.953 173.22C941.693 173.42 942.373 173.71 942.993 174.09C943.613 174.47 944.133 174.92 944.553 175.44L942.783 177.39C942.403 177.01 941.983 176.68 941.523 176.4C941.083 176.1 940.633 175.87 940.173 175.71C939.713 175.55 939.293 175.47 938.913 175.47C938.493 175.47 938.113 175.51 937.773 175.59C937.433 175.67 937.143 175.79 936.903 175.95C936.683 176.11 936.513 176.31 936.393 176.55C936.273 176.79 936.213 177.06 936.213 177.36C936.233 177.62 936.293 177.87 936.393 178.11C936.513 178.33 936.673 178.52 936.873 178.68C937.093 178.84 937.423 179.01 937.863 179.19C938.303 179.37 938.863 179.54 939.543 179.7C940.543 179.96 941.363 180.25 942.003 180.57C942.663 180.87 943.183 181.22 943.563 181.62C943.963 182 944.243 182.44 944.403 182.94C944.563 183.44 944.643 184 944.643 184.62C944.643 185.52 944.383 186.33 943.863 187.05C943.363 187.75 942.683 188.3 941.823 188.7C940.963 189.1 940.003 189.3 938.943 189.3ZM942.559 189V173.25H945.649V189H942.559ZM944.059 169.77C943.399 169.77 942.889 169.6 942.529 169.26C942.169 168.92 941.989 168.44 941.989 167.82C941.989 167.24 942.169 166.77 942.529 166.41C942.909 166.05 943.419 165.87 944.059 165.87C944.719 165.87 945.229 166.04 945.589 166.38C945.949 166.72 946.129 167.2 946.129 167.82C946.129 168.4 945.939 168.87 945.559 169.23C945.199 169.59 944.699 169.77 944.059 169.77ZM944.398 189V173.25H947.488V176.49L946.948 176.85C947.148 176.15 947.538 175.51 948.118 174.93C948.698 174.33 949.388 173.85 950.188 173.49C950.988 173.11 951.808 172.92 952.648 172.92C953.848 172.92 954.848 173.16 955.648 173.64C956.448 174.1 957.048 174.81 957.448 175.77C957.848 176.73 958.048 177.94 958.048 179.4V189H954.958V179.61C954.958 178.71 954.838 177.97 954.598 177.39C954.358 176.79 953.988 176.36 953.488 176.1C952.988 175.82 952.368 175.7 951.628 175.74C951.028 175.74 950.478 175.84 949.978 176.04C949.478 176.22 949.038 176.48 948.658 176.82C948.298 177.16 948.008 177.56 947.788 178.02C947.588 178.46 947.488 178.94 947.488 179.46V189H945.958C945.698 189 945.438 189 945.178 189C944.918 189 944.658 189 944.398 189ZM963.59 189.3C961.97 189.3 960.53 188.96 959.27 188.28C958.03 187.58 957.05 186.63 956.33 185.43C955.63 184.23 955.28 182.85 955.28 181.29C955.28 180.05 955.48 178.92 955.88 177.9C956.28 176.88 956.83 176 957.53 175.26C958.25 174.5 959.1 173.92 960.08 173.52C961.08 173.1 962.16 172.89 963.32 172.89C964.34 172.89 965.29 173.09 966.17 173.49C967.05 173.87 967.81 174.4 968.45 175.08C969.11 175.76 969.61 176.57 969.95 177.51C970.31 178.43 970.48 179.44 970.46 180.54L970.43 181.86H957.56L956.87 179.4H967.76L967.31 179.91V179.19C967.25 178.53 967.03 177.94 966.65 177.42C966.27 176.9 965.79 176.49 965.21 176.19C964.63 175.89 964 175.74 963.32 175.74C962.24 175.74 961.33 175.95 960.59 176.37C959.85 176.77 959.29 177.37 958.91 178.17C958.53 178.95 958.34 179.92 958.34 181.08C958.34 182.18 958.57 183.14 959.03 183.96C959.49 184.76 960.14 185.38 960.98 185.82C961.82 186.26 962.79 186.48 963.89 186.48C964.67 186.48 965.39 186.35 966.05 186.09C966.73 185.83 967.46 185.36 968.24 184.68L969.8 186.87C969.32 187.35 968.73 187.77 968.03 188.13C967.35 188.49 966.62 188.78 965.84 189C965.08 189.2 964.33 189.3 963.59 189.3ZM973.068 189.3C971.748 189.3 970.558 189.07 969.498 188.61C968.438 188.15 967.558 187.47 966.858 186.57L968.958 184.77C969.558 185.47 970.208 185.98 970.908 186.3C971.628 186.6 972.438 186.75 973.338 186.75C973.698 186.75 974.028 186.71 974.328 186.63C974.648 186.53 974.918 186.39 975.138 186.21C975.378 186.03 975.558 185.82 975.678 185.58C975.798 185.32 975.858 185.04 975.858 184.74C975.858 184.22 975.668 183.8 975.288 183.48C975.088 183.34 974.768 183.19 974.328 183.03C973.908 182.85 973.358 182.67 972.678 182.49C971.518 182.19 970.568 181.85 969.828 181.47C969.088 181.09 968.518 180.66 968.118 180.18C967.818 179.8 967.598 179.39 967.458 178.95C967.318 178.49 967.248 177.99 967.248 177.45C967.248 176.79 967.388 176.19 967.668 175.65C967.968 175.09 968.368 174.61 968.868 174.21C969.388 173.79 969.988 173.47 970.668 173.25C971.368 173.03 972.108 172.92 972.888 172.92C973.628 172.92 974.358 173.02 975.078 173.22C975.818 173.42 976.498 173.71 977.118 174.09C977.738 174.47 978.258 174.92 978.678 175.44L976.908 177.39C976.528 177.01 976.108 176.68 975.648 176.4C975.208 176.1 974.758 175.87 974.298 175.71C973.838 175.55 973.418 175.47 973.038 175.47C972.618 175.47 972.238 175.51 971.898 175.59C971.558 175.67 971.268 175.79 971.028 175.95C970.808 176.11 970.638 176.31 970.518 176.55C970.398 176.79 970.338 177.06 970.338 177.36C970.358 177.62 970.418 177.87 970.518 178.11C970.638 178.33 970.798 178.52 970.998 178.68C971.218 178.84 971.548 179.01 971.988 179.19C972.428 179.37 972.988 179.54 973.668 179.7C974.668 179.96 975.488 180.25 976.128 180.57C976.788 180.87 977.308 181.22 977.688 181.62C978.088 182 978.368 182.44 978.528 182.94C978.688 183.44 978.768 184 978.768 184.62C978.768 185.52 978.508 186.33 977.988 187.05C977.488 187.75 976.808 188.3 975.948 188.7C975.088 189.1 974.128 189.3 973.068 189.3ZM981.424 189.3C980.104 189.3 978.914 189.07 977.854 188.61C976.794 188.15 975.914 187.47 975.214 186.57L977.314 184.77C977.914 185.47 978.564 185.98 979.264 186.3C979.984 186.6 980.794 186.75 981.694 186.75C982.054 186.75 982.384 186.71 982.684 186.63C983.004 186.53 983.274 186.39 983.494 186.21C983.734 186.03 983.914 185.82 984.034 185.58C984.154 185.32 984.214 185.04 984.214 184.74C984.214 184.22 984.024 183.8 983.644 183.48C983.444 183.34 983.124 183.19 982.684 183.03C982.264 182.85 981.714 182.67 981.034 182.49C979.874 182.19 978.924 181.85 978.184 181.47C977.444 181.09 976.874 180.66 976.474 180.18C976.174 179.8 975.954 179.39 975.814 178.95C975.674 178.49 975.604 177.99 975.604 177.45C975.604 176.79 975.744 176.19 976.024 175.65C976.324 175.09 976.724 174.61 977.224 174.21C977.744 173.79 978.344 173.47 979.024 173.25C979.724 173.03 980.464 172.92 981.244 172.92C981.984 172.92 982.714 173.02 983.434 173.22C984.174 173.42 984.854 173.71 985.474 174.09C986.094 174.47 986.614 174.92 987.034 175.44L985.264 177.39C984.884 177.01 984.464 176.68 984.004 176.4C983.564 176.1 983.114 175.87 982.654 175.71C982.194 175.55 981.774 175.47 981.394 175.47C980.974 175.47 980.594 175.51 980.254 175.59C979.914 175.67 979.624 175.79 979.384 175.95C979.164 176.11 978.994 176.31 978.874 176.55C978.754 176.79 978.694 177.06 978.694 177.36C978.714 177.62 978.774 177.87 978.874 178.11C978.994 178.33 979.154 178.52 979.354 178.68C979.574 178.84 979.904 179.01 980.344 179.19C980.784 179.37 981.344 179.54 982.024 179.7C983.024 179.96 983.844 180.25 984.484 180.57C985.144 180.87 985.664 181.22 986.044 181.62C986.444 182 986.724 182.44 986.884 182.94C987.044 183.44 987.124 184 987.124 184.62C987.124 185.52 986.864 186.33 986.344 187.05C985.844 187.75 985.164 188.3 984.304 188.7C983.444 189.1 982.484 189.3 981.424 189.3ZM564.16 227V211.25H567.25V214.49L566.71 214.85C566.91 214.15 567.3 213.51 567.88 212.93C568.46 212.33 569.15 211.85 569.95 211.49C570.75 211.11 571.57 210.92 572.41 210.92C573.61 210.92 574.61 211.16 575.41 211.64C576.21 212.1 576.81 212.81 577.21 213.77C577.61 214.73 577.81 215.94 577.81 217.4V227H574.72V217.61C574.72 216.71 574.6 215.97 574.36 215.39C574.12 214.79 573.75 214.36 573.25 214.1C572.75 213.82 572.13 213.7 571.39 213.74C570.79 213.74 570.24 213.84 569.74 214.04C569.24 214.22 568.8 214.48 568.42 214.82C568.06 215.16 567.77 215.56 567.55 216.02C567.35 216.46 567.25 216.94 567.25 217.46V227H565.72C565.46 227 565.2 227 564.94 227C564.68 227 564.42 227 564.16 227ZM583.352 227.3C581.732 227.3 580.292 226.96 579.032 226.28C577.792 225.58 576.812 224.63 576.092 223.43C575.392 222.23 575.042 220.85 575.042 219.29C575.042 218.05 575.242 216.92 575.642 215.9C576.042 214.88 576.592 214 577.292 213.26C578.012 212.5 578.862 211.92 579.842 211.52C580.842 211.1 581.922 210.89 583.082 210.89C584.102 210.89 585.052 211.09 585.932 211.49C586.812 211.87 587.572 212.4 588.212 213.08C588.872 213.76 589.372 214.57 589.712 215.51C590.072 216.43 590.242 217.44 590.222 218.54L590.192 219.86H577.322L576.632 217.4H587.522L587.072 217.91V217.19C587.012 216.53 586.792 215.94 586.412 215.42C586.032 214.9 585.552 214.49 584.972 214.19C584.392 213.89 583.762 213.74 583.082 213.74C582.002 213.74 581.092 213.95 580.352 214.37C579.612 214.77 579.052 215.37 578.672 216.17C578.292 216.95 578.102 217.92 578.102 219.08C578.102 220.18 578.332 221.14 578.792 221.96C579.252 222.76 579.902 223.38 580.742 223.82C581.582 224.26 582.552 224.48 583.652 224.48C584.432 224.48 585.152 224.35 585.812 224.09C586.492 223.83 587.222 223.36 588.002 222.68L589.562 224.87C589.082 225.35 588.492 225.77 587.792 226.13C587.112 226.49 586.382 226.78 585.602 227C584.842 227.2 584.092 227.3 583.352 227.3ZM594.93 227.3C593.31 227.3 591.87 226.96 590.61 226.28C589.37 225.58 588.39 224.63 587.67 223.43C586.97 222.23 586.62 220.85 586.62 219.29C586.62 218.05 586.82 216.92 587.22 215.9C587.62 214.88 588.17 214 588.87 213.26C589.59 212.5 590.44 211.92 591.42 211.52C592.42 211.1 593.5 210.89 594.66 210.89C595.68 210.89 596.63 211.09 597.51 211.49C598.39 211.87 599.15 212.4 599.79 213.08C600.45 213.76 600.95 214.57 601.29 215.51C601.65 216.43 601.82 217.44 601.8 218.54L601.77 219.86H588.9L588.21 217.4H599.1L598.65 217.91V217.19C598.59 216.53 598.37 215.94 597.99 215.42C597.61 214.9 597.13 214.49 596.55 214.19C595.97 213.89 595.34 213.74 594.66 213.74C593.58 213.74 592.67 213.95 591.93 214.37C591.19 214.77 590.63 215.37 590.25 216.17C589.87 216.95 589.68 217.92 589.68 219.08C589.68 220.18 589.91 221.14 590.37 221.96C590.83 222.76 591.48 223.38 592.32 223.82C593.16 224.26 594.13 224.48 595.23 224.48C596.01 224.48 596.73 224.35 597.39 224.09C598.07 223.83 598.8 223.36 599.58 222.68L601.14 224.87C600.66 225.35 600.07 225.77 599.37 226.13C598.69 226.49 597.96 226.78 597.18 227C596.42 227.2 595.67 227.3 594.93 227.3ZM605.728 227.3C604.288 227.3 602.998 226.95 601.858 226.25C600.738 225.53 599.848 224.56 599.188 223.34C598.528 222.1 598.198 220.69 598.198 219.11C598.198 217.53 598.518 216.13 599.158 214.91C599.818 213.67 600.708 212.7 601.828 212C602.948 211.28 604.218 210.92 605.638 210.92C606.418 210.92 607.168 211.05 607.888 211.31C608.628 211.55 609.288 211.89 609.868 212.33C610.448 212.75 610.898 213.22 611.218 213.74C611.558 214.24 611.728 214.75 611.728 215.27L610.828 215.33V204.8H613.918V227H610.828V223.25H611.428C611.428 223.73 611.268 224.21 610.948 224.69C610.628 225.15 610.198 225.58 609.658 225.98C609.138 226.38 608.528 226.7 607.828 226.94C607.148 227.18 606.448 227.3 605.728 227.3ZM606.148 224.63C607.088 224.63 607.918 224.39 608.638 223.91C609.358 223.43 609.918 222.78 610.318 221.96C610.738 221.12 610.948 220.17 610.948 219.11C610.948 218.05 610.738 217.11 610.318 216.29C609.918 215.45 609.358 214.79 608.638 214.31C607.918 213.83 607.088 213.59 606.148 213.59C605.208 213.59 604.378 213.83 603.658 214.31C602.938 214.79 602.368 215.45 601.948 216.29C601.548 217.11 601.348 218.05 601.348 219.11C601.348 220.17 601.548 221.12 601.948 221.96C602.368 222.78 602.938 223.43 603.658 223.91C604.378 224.39 605.208 224.63 606.148 224.63ZM617.422 227.3C616.102 227.3 614.912 227.07 613.852 226.61C612.792 226.15 611.912 225.47 611.212 224.57L613.312 222.77C613.912 223.47 614.562 223.98 615.262 224.3C615.982 224.6 616.792 224.75 617.692 224.75C618.052 224.75 618.382 224.71 618.682 224.63C619.002 224.53 619.272 224.39 619.492 224.21C619.732 224.03 619.912 223.82 620.032 223.58C620.152 223.32 620.212 223.04 620.212 222.74C620.212 222.22 620.022 221.8 619.642 221.48C619.442 221.34 619.122 221.19 618.682 221.03C618.262 220.85 617.712 220.67 617.032 220.49C615.872 220.19 614.922 219.85 614.182 219.47C613.442 219.09 612.872 218.66 612.472 218.18C612.172 217.8 611.952 217.39 611.812 216.95C611.672 216.49 611.602 215.99 611.602 215.45C611.602 214.79 611.742 214.19 612.022 213.65C612.322 213.09 612.722 212.61 613.222 212.21C613.742 211.79 614.342 211.47 615.022 211.25C615.722 211.03 616.462 210.92 617.242 210.92C617.982 210.92 618.712 211.02 619.432 211.22C620.172 211.42 620.852 211.71 621.472 212.09C622.092 212.47 622.612 212.92 623.032 213.44L621.262 215.39C620.882 215.01 620.462 214.68 620.002 214.4C619.562 214.1 619.112 213.87 618.652 213.71C618.192 213.55 617.772 213.47 617.392 213.47C616.972 213.47 616.592 213.51 616.252 213.59C615.912 213.67 615.622 213.79 615.382 213.95C615.162 214.11 614.992 214.31 614.872 214.55C614.752 214.79 614.692 215.06 614.692 215.36C614.712 215.62 614.772 215.87 614.872 216.11C614.992 216.33 615.152 216.52 615.352 216.68C615.572 216.84 615.902 217.01 616.342 217.19C616.782 217.37 617.342 217.54 618.022 217.7C619.022 217.96 619.842 218.25 620.482 218.57C621.142 218.87 621.662 219.22 622.042 219.62C622.442 220 622.722 220.44 622.882 220.94C623.042 221.44 623.122 222 623.122 222.62C623.122 223.52 622.862 224.33 622.342 225.05C621.842 225.75 621.162 226.3 620.302 226.7C619.442 227.1 618.482 227.3 617.422 227.3Z" fill="black"/>
<path d="M432.894 126.771L431.617 96.3699C431.559 95.0085 432.589 91.9587 437.166 90.6503C441.742 89.3419 471.524 89.6748 485.843 90.0048" stroke="#E68C22" stroke-width="10"/>
<path d="M432.894 126.771L431.617 96.3699C431.559 95.0085 432.589 91.9587 437.166 90.6503C441.742 89.3419 471.524 89.6748 485.843 90.0048" stroke="#E68C22" stroke-width="10"/>
<path d="M468.272 69.2617L470.711 127.331C470.821 129.932 469.907 135.743 465.378 138.187C460.85 140.63 431.039 139.635 416.701 138.832" stroke="#E68C22" stroke-width="10"/>
<path d="M459.976 152.537L514.094 152.18C516.517 152.164 521.905 151.478 524.071 148.862C526.236 146.246 524.592 129.534 523.499 121.505" stroke="#2ABDEC" stroke-width="10"/>
<path d="M670.331 322.539L630.565 323.103C628.784 323.128 624.878 324.394 623.503 329.257C622.127 334.12 624.721 365.213 626.19 380.151" stroke="#2ABDEC" stroke-width="10"/>
<path d="M378.449 151.113L324.335 151.628C321.912 151.652 316.53 152.353 314.389 154.976C312.248 157.598 314.047 174.305 315.214 182.33" stroke="#E58C22" stroke-width="10"/>
<path d="M1445.52 377.537L1458.04 211.647C1458.6 204.219 1450.17 187.853 1411.99 181.82C1373.82 175.787 1124.83 184.714 1005.1 189.932" stroke="#E58C22" stroke-width="10"/>
<path d="M1159.54 384L1166.78 248.887C1167.1 242.836 1160.54 229.24 1131.73 223.259C1102.91 217.277 915.591 217.686 825.536 218.638" stroke="#E58C22" stroke-width="10"/>
<path d="M123.793 307.555L328.945 307.576C338.132 307.577 358.643 304.269 367.195 291.03C375.746 277.791 371.717 192.69 368.634 151.794" stroke="#E58C22" stroke-width="10"/>
<path d="M122.585 206.232L123.539 145.635C123.582 142.922 130.466 136.883 157.662 134.435C184.858 131.987 359.388 133.68 443.253 134.833" stroke="#E58C22" stroke-width="10"/>
<path d="M1309.32 0.896484L1310.13 119.311C1310.16 124.613 1298.02 136.481 1249.15 141.533C1200.29 146.584 885.977 144.998 734.929 143.574" stroke="#E58C22" stroke-width="10"/>
<path d="M405.868 126.789L405.572 96.3795C405.559 95.0177 404.372 91.986 399.73 90.7529C395.088 89.5198 365.335 90.3389 351.039 90.9026" stroke="#2ABDEC" stroke-width="10"/>
<path d="M870.154 246.215L946.553 246.096C949.974 246.091 957.59 245.109 960.686 241.225C963.782 237.34 961.711 212.408 960.289 200.427" stroke="#2ABDEC" stroke-width="10"/>
<path d="M665.618 263.734L621.616 263.666C619.645 263.663 615.259 263.011 613.48 260.429C611.7 257.847 612.914 241.27 613.744 233.304" stroke="#2ABDEC" stroke-width="10"/>
<path d="M857.941 247.135L781.559 246.365C778.138 246.33 770.476 247.223 767.191 251.07C763.906 254.917 764.756 279.867 765.591 291.861" stroke="#2ABDEC" stroke-width="10"/>
<path d="M653.6 322.229L747.18 321.845C751.371 321.828 760.692 320.82 764.451 316.925C768.21 313.03 765.461 288.104 763.617 276.129" stroke="#2ABDEC" stroke-width="10"/>
<path d="M1346.26 373.953L1344.1 278.332C1344.01 274.05 1329.65 264.592 1272.97 261.016C1216.29 257.439 852.615 261.95 677.861 264.652" stroke="#2ABDEC" stroke-width="10"/>
<path d="M611.516 293.092L475.862 291.568C469.787 291.499 456.395 288.423 451.421 276.666C446.447 264.909 453.486 189.776 457.628 153.679" stroke="#2ABDEC" stroke-width="10"/>
<path d="M405.868 126.789L405.572 96.3795C405.559 95.0177 404.372 91.986 399.73 90.7529C395.088 89.5198 365.335 90.3389 351.039 90.9026" stroke="#2ABDEC" stroke-width="10"/>
<path d="M132.857 110.707L133.153 80.2975C133.167 78.9357 134.354 75.904 138.996 74.6709C143.638 73.4378 173.39 74.2569 187.686 74.8205" stroke="#2ABDEC" stroke-width="10"/>
<path d="M383.842 142.227L383.546 111.817C383.532 110.455 378.032 107.437 356.138 106.257C334.243 105.077 193.597 106.237 126.011 106.964" stroke="#2ABDEC" stroke-width="10"/>
<path d="M383.612 143.656L233.654 144.834C226.939 144.887 212.061 147.496 206.271 157.514C200.481 167.532 206.391 231.585 210.07 262.36" stroke="#2ABDEC" stroke-width="10"/>
<path d="M877.077 171.621L876.781 141.212C876.768 139.85 875.581 136.818 870.939 135.585C866.297 134.352 836.544 135.171 822.248 135.735" stroke="#2ABDEC" stroke-width="10"/>
<path d="M821.97 134.912L821.674 104.503C821.66 103.141 820.473 100.109 815.831 98.8759C811.189 97.6429 781.437 98.4619 767.141 99.0256" stroke="#2ABDEC" stroke-width="10"/>
<path d="M767.682 102.326L767.422 75.6959C767.411 74.5034 766.227 71.8489 761.587 70.7708C756.946 69.6927 727.193 70.4214 712.896 70.9205" stroke="#2ABDEC" stroke-width="10"/>
<path d="M566.054 0.431641L566.623 58.937C566.649 61.5569 569.69 67.3874 581.648 69.7505C593.607 72.1136 670.31 70.4779 707.166 69.3647" stroke="#2ABDEC" stroke-width="10"/>
<rect width="100.091" height="61.5101" rx="30.755" transform="matrix(0.999925 -0.0122677 0.038831 0.999246 365.541 121.645)" fill="#0B5FDD"/>
<ellipse cx="328.878" cy="81.4531" rx="0.0467933" ry="2.56836" fill="#D9D9D9"/>
<ellipse cx="346.182" cy="89.2892" rx="9.42184" ry="5.26775" fill="#2ABDEC"/>
<ellipse cx="193.021" cy="75.3713" rx="9.42184" ry="5.26775" fill="#2ABDEC"/>
<ellipse cx="525.382" cy="116.231" rx="9.42184" ry="5.26775" fill="#2ABDEC"/>
<ellipse cx="211.845" cy="264.24" rx="9.42184" ry="5.26775" fill="#2ABDEC"/>
<ellipse cx="612.871" cy="292.701" rx="9.42184" ry="5.26775" fill="#2ABDEC"/>
<ellipse cx="712.719" cy="71.1154" rx="9.42184" ry="5.26775" fill="#2ABDEC"/>
<ellipse cx="671.525" cy="263.709" rx="9.42184" ry="5.26775" fill="#2ABDEC"/>
<ellipse cx="822.115" cy="136.955" rx="9.42184" ry="5.26775" fill="#2ABDEC"/>
<ellipse cx="867.401" cy="246.151" rx="9.42184" ry="5.26775" fill="#2ABDEC"/>
<ellipse cx="492.358" cy="90.0217" rx="9.42184" ry="5.26775" fill="#E58C22"/>
<ellipse cx="468.012" cy="67.1271" rx="9.42184" ry="5.26775" fill="#E58C22"/>
<ellipse cx="731.422" cy="144.098" rx="9.42184" ry="5.26775" fill="#E58C22"/>
<ellipse cx="822.115" cy="217.82" rx="9.42184" ry="5.26775" fill="#E58C22"/>
<ellipse cx="477.435" cy="213.67" rx="9.42184" ry="5.26775" fill="#E58C22"/>
<ellipse cx="1206.77" cy="183.108" rx="9.42184" ry="5.26775" fill="#E58C22"/>
<ellipse cx="313.065" cy="187.619" rx="9.42184" ry="5.26775" fill="#E58C22"/>
<ellipse cx="123.728" cy="208.51" rx="9.42184" ry="5.26775" fill="#E58C22"/>
<ellipse cx="123.728" cy="316.764" rx="9.42184" ry="5.26775" fill="#E58C22"/>
<path d="M566.9 152.646V117.646H571.75L593.15 146.296L592.35 146.746C592.217 145.913 592.1 145.013 592 144.046C591.9 143.046 591.8 141.996 591.7 140.896C591.633 139.763 591.567 138.58 591.5 137.346C591.467 136.08 591.433 134.763 591.4 133.396C591.367 132.03 591.35 130.613 591.35 129.146V117.646H596.75V152.646H591.8L570.75 125.046L571.3 124.346C571.467 126.38 571.6 128.113 571.7 129.546C571.833 130.946 571.933 132.146 572 133.146C572.1 134.113 572.167 134.913 572.2 135.546C572.233 136.146 572.25 136.646 572.25 137.046C572.283 137.446 572.3 137.796 572.3 138.096V152.646H566.9ZM607.048 153.146C604.482 153.146 602.182 152.563 600.148 151.396C598.148 150.196 596.565 148.58 595.398 146.546C594.232 144.48 593.648 142.13 593.648 139.496C593.648 136.863 594.232 134.53 595.398 132.496C596.565 130.43 598.148 128.813 600.148 127.646C602.182 126.446 604.482 125.846 607.048 125.846C609.582 125.846 611.848 126.446 613.848 127.646C615.882 128.813 617.482 130.43 618.648 132.496C619.815 134.53 620.398 136.863 620.398 139.496C620.398 142.13 619.815 144.48 618.648 146.546C617.482 148.58 615.882 150.196 613.848 151.396C611.848 152.563 609.582 153.146 607.048 153.146ZM607.048 148.446C608.615 148.446 610.015 148.063 611.248 147.296C612.482 146.496 613.448 145.43 614.148 144.096C614.848 142.73 615.182 141.196 615.148 139.496C615.182 137.763 614.848 136.23 614.148 134.896C613.448 133.53 612.482 132.463 611.248 131.696C610.015 130.93 608.615 130.546 607.048 130.546C605.482 130.546 604.065 130.946 602.798 131.746C601.565 132.513 600.598 133.58 599.898 134.946C599.198 136.28 598.865 137.796 598.898 139.496C598.865 141.196 599.198 142.73 599.898 144.096C600.598 145.43 601.565 146.496 602.798 147.296C604.065 148.063 605.482 148.446 607.048 148.446ZM623.878 152.646L612.778 126.396H618.328L626.328 146.046L625.378 146.496L633.928 126.396H639.228L627.578 152.646H623.878ZM634.79 152.646V126.396H639.94V152.646H634.79ZM637.29 120.596C636.19 120.596 635.34 120.313 634.74 119.746C634.14 119.18 633.84 118.38 633.84 117.346C633.84 116.38 634.14 115.596 634.74 114.996C635.373 114.396 636.223 114.096 637.29 114.096C638.39 114.096 639.24 114.38 639.84 114.946C640.44 115.513 640.74 116.313 640.74 117.346C640.74 118.313 640.423 119.096 639.79 119.696C639.19 120.296 638.357 120.596 637.29 120.596ZM649.606 164.146C647.739 164.146 645.873 163.846 644.006 163.246C642.173 162.68 640.689 161.93 639.556 160.996L641.456 156.996C642.123 157.496 642.906 157.93 643.806 158.296C644.706 158.696 645.656 158.996 646.656 159.196C647.656 159.43 648.639 159.546 649.606 159.546C651.439 159.546 652.973 159.246 654.206 158.646C655.439 158.046 656.373 157.163 657.006 155.996C657.639 154.83 657.956 153.38 657.956 151.646V146.596L658.506 146.946C658.339 147.98 657.789 148.98 656.856 149.946C655.956 150.88 654.823 151.646 653.456 152.246C652.089 152.846 650.689 153.146 649.256 153.146C646.756 153.146 644.523 152.563 642.556 151.396C640.623 150.196 639.089 148.58 637.956 146.546C636.823 144.48 636.256 142.13 636.256 139.496C636.256 136.863 636.806 134.53 637.906 132.496C639.039 130.43 640.573 128.813 642.506 127.646C644.473 126.446 646.673 125.846 649.106 125.846C650.106 125.846 651.073 125.98 652.006 126.246C652.939 126.48 653.806 126.83 654.606 127.296C655.406 127.73 656.123 128.213 656.756 128.746C657.389 129.28 657.906 129.846 658.306 130.446C658.706 131.046 658.956 131.613 659.056 132.146L657.956 132.546V126.396H663.106V151.046C663.106 153.146 662.789 154.996 662.156 156.596C661.556 158.23 660.673 159.596 659.506 160.696C658.339 161.83 656.923 162.68 655.256 163.246C653.589 163.846 651.706 164.146 649.606 164.146ZM649.806 148.396C651.439 148.396 652.889 148.013 654.156 147.246C655.423 146.48 656.406 145.43 657.106 144.096C657.806 142.763 658.156 141.23 658.156 139.496C658.156 137.763 657.789 136.23 657.056 134.896C656.356 133.53 655.373 132.463 654.106 131.696C652.873 130.93 651.439 130.546 649.806 130.546C648.206 130.546 646.773 130.946 645.506 131.746C644.273 132.513 643.289 133.58 642.556 134.946C641.856 136.28 641.506 137.796 641.506 139.496C641.506 141.196 641.856 142.73 642.556 144.096C643.289 145.43 644.273 146.48 645.506 147.246C646.773 148.013 648.206 148.396 649.806 148.396ZM672.127 153.146C669.56 153.146 667.26 152.563 665.227 151.396C663.227 150.196 661.643 148.58 660.477 146.546C659.31 144.48 658.727 142.13 658.727 139.496C658.727 136.863 659.31 134.53 660.477 132.496C661.643 130.43 663.227 128.813 665.227 127.646C667.26 126.446 669.56 125.846 672.127 125.846C674.66 125.846 676.927 126.446 678.927 127.646C680.96 128.813 682.56 130.43 683.727 132.496C684.893 134.53 685.477 136.863 685.477 139.496C685.477 142.13 684.893 144.48 683.727 146.546C682.56 148.58 680.96 150.196 678.927 151.396C676.927 152.563 674.66 153.146 672.127 153.146ZM672.127 148.446C673.693 148.446 675.093 148.063 676.327 147.296C677.56 146.496 678.527 145.43 679.227 144.096C679.927 142.73 680.26 141.196 680.227 139.496C680.26 137.763 679.927 136.23 679.227 134.896C678.527 133.53 677.56 132.463 676.327 131.696C675.093 130.93 673.693 130.546 672.127 130.546C670.56 130.546 669.143 130.946 667.877 131.746C666.643 132.513 665.677 133.58 664.977 134.946C664.277 136.28 663.943 137.796 663.977 139.496C663.943 141.196 664.277 142.73 664.977 144.096C665.677 145.43 666.643 146.496 667.877 147.296C669.143 148.063 670.56 148.446 672.127 148.446Z" fill="black"/>
<path d="M416.798 176.953V207.363C416.798 208.725 417.955 211.76 422.585 213.008C427.215 214.255 456.975 213.527 471.277 213.008" stroke="#E58C22" stroke-width="10"/>
</svg>
